#!OML:ASF F:\VICON\USERDATA\INSTALL\Justin_Nancy\Justin_Nancy.ASF
:FULLY-SPECIFIED
:DEGREES
66
root 3.00446 17.6612 0.0870614 -5.02838 -38.7861 21.0714
lowerback 11.1067 -1.63238 -10.0224
upperback -1.90212 -3.6409 -0.500626
thorax -7.72552 -1.33558 5.73203
lowerneck -19.4561 -4.26798 -12.3279
upperneck 17.2496 -3.79156 6.97086
head 8.99242 -1.85943 3.90849
rclavicle -3.29983e-014 -3.18055e-014
rhumerus -61.2028 9.36151 -96.0911
rradius 106.442
rwrist -12.012
rhand -12.0516 25.0059
rfingers 7.12502
rthumb 14.0073 -4.50219
lclavicle -3.29983e-014 -3.18055e-014
lhumerus -44.2662 -0.152046 88.8741
lradius 114.228
lwrist 27.207
lhand -11.9198 9.37901
lfingers 7.12502
lthumb 14.1343 38.8782
rfemur -39.5022 0.297457 18.5066
rtibia 29.2702
rfoot -1.19807 -3.89205
rtoes 1.3535
lfemur 12.6186 -10.4792 -30.0268
ltibia 26.4099
lfoot 28.3663 -12.5154
ltoes -0.569698
67
root 2.75359 17.6931 0.451544 -5.61082 -39.2964 21.7124
lowerback 10.9362 -1.16696 -9.93163
upperback -1.32888 -3.00763 -1.21213
thorax -7.15317 -1.1019 4.79608
lowerneck -20.7574 -4.85017 -11.2577
upperneck 17.2972 -4.73749 6.90761
head 9.30729 -2.2108 3.56785
rclavicle 8.94531e-015 1.59028e-015
rhumerus -59.88 7.11119 -95.9503
rradius 106.692
rwrist -12.1004
rhand -12.0784 25.0562
rfingers 7.12502
rthumb 13.9814 -4.45366
lclavicle 8.94531e-015 1.59028e-015
lhumerus -43.4615 -2.09389 88.6201
lradius 113.746
lwrist 27.2678
lhand -11.7202 9.23425
lfingers 7.12502
lthumb 14.3266 38.7199
rfemur -38.4956 -0.327169 18.7789
rtibia 26.2925
rfoot -0.326902 -4.52194
rtoes -1.51969
lfemur 12.1329 -11.2043 -30.6852
ltibia 28.5378
lfoot 28.5868 -8.46618
ltoes 6.41173
68
root 2.52061 17.6477 0.812978 -5.85406 -39.9134 21.696
lowerback 10.9786 -0.997469 -9.68018
upperback -1.3248 -2.75037 -1.18422
thorax -7.22045 -0.98242 4.64757
lowerneck -20.3571 -4.99213 -11.6219
upperneck 17.1384 -4.8996 7.06415
head 9.21233 -2.29929 3.65962
rclavicle -3.18055e-014 -1.59028e-014
rhumerus -59.8834 6.33298 -95.3761
rradius 107.121
rwrist -12.7758
rhand -12.3846 25.2446
rfingers 7.12502
rthumb 13.6863 -4.28534
lclavicle -3.18055e-014 -1.59028e-014
lhumerus -43.9503 -2.53797 88.9725
lradius 113.354
lwrist 26.738
lhand -11.6323 9.55117
lfingers 7.12502
lthumb 14.4113 39.0308
rfemur -37.8499 -0.740858 19.6004
rtibia 24.3916
rfoot 0.923663 -4.90129
rtoes -1.62066
lfemur 12.1502 -9.87585 -30.5998
ltibia 30.7337
lfoot 26.5062 -12.2642
ltoes -4.07873
69
root 2.27893 17.6202 1.17619 -6.08242 -40.5195 21.7593
lowerback 10.9289 -0.995293 -9.59602
upperback -1.37604 -2.72111 -1.0331
thorax -7.24735 -0.96469 4.75673
lowerneck -19.8283 -4.8605 -11.9544
upperneck 16.9467 -4.64538 6.91722
head 9.03251 -2.22625 3.70042
rclavicle -5.62561e-014 -2.8625e-014
rhumerus -59.8603 6.24465 -94.9053
rradius 107.502
rwrist -13.3687
rhand -12.6996 25.2186
rfingers 7.12502
rthumb 13.3827 -4.33156
lclavicle -5.62561e-014 -2.8625e-014
lhumerus -44.4412 -2.30673 89.0323
lradius 112.808
lwrist 26.5702
lhand -11.2672 9.75133
lfingers 7.12502
lthumb 14.763 39.2056
rfemur -37.2451 -1.11448 20.2549
rtibia 23.1935
rfoot 1.92727 -5.11117
rtoes 1.25865
lfemur 11.6587 -9.32374 -30.6398
ltibia 33.354
lfoot 25.3796 -13.4131
ltoes -8.04861
70
root 2.03435 17.5878 1.54654 -6.55537 -40.9635 22.1822
lowerback 10.6615 -0.93558 -9.50955
upperback -1.2046 -2.60133 -1.20996
thorax -6.93798 -0.935929 4.48713
lowerneck -19.5615 -4.91406 -11.9307
upperneck 16.6349 -4.71102 6.74624
head 8.88036 -2.27346 3.62523
rclavicle -5.74488e-014 3.18055e-015
rhumerus -59.3868 5.68063 -94.7696
rradius 107.751
rwrist -13.2617
rhand -12.914 25.3299
rfingers 7.12502
rthumb 13.1761 -4.23378
lclavicle -5.74488e-014 3.18055e-015
lhumerus -44.4179 -2.54882 88.8354
lradius 112.04
lwrist 26.591
lhand -11.3335 9.47951
lfingers 7.12502
lthumb 14.6992 38.9384
rfemur -36.8615 -1.98269 20.7502
rtibia 22.936
rfoot 2.69314 -4.69603
rtoes 1.51329
lfemur 10.9326 -8.88988 -30.9169
ltibia 36.0995
lfoot 25.2707 -13.7567
ltoes -8.63521
71
root 1.78865 17.5424 1.91688 -6.94529 -41.5902 22.3348
lowerback 10.5468 -0.744298 -9.25807
upperback -1.14674 -2.30311 -1.29318
thorax -6.8645 -0.807518 4.2076
lowerneck -19.1433 -5.03543 -12.1513
upperneck 16.5207 -4.88515 6.83921
head 8.79438 -2.36565 3.67125
rclavicle 1.35174e-014 -1.43125e-014
rhumerus -59.1841 5.07205 -94.5747
rradius 108.067
rwrist -13.1945
rhand -12.881 25.4545
rfingers 7.12502
rthumb 13.2079 -4.10706
lclavicle 1.35174e-014 -1.43125e-014
lhumerus -44.8526 -2.94102 89.0143
lradius 111.343
lwrist 26.5708
lhand -12.2087 8.54478
lfingers 7.12502
lthumb 13.8558 38.0632
rfemur -36.3833 -2.66751 21.4754
rtibia 23.1704
rfoot 3.49168 -4.21264
rtoes -0.451537
lfemur 9.99578 -8.35626 -30.8675
ltibia 39.1794
lfoot 25.636 -13.591
ltoes -6.50963
72
root 1.54036 17.4919 2.28124 -7.24054 -42.2287 22.1653
lowerback 10.5758 -0.630794 -8.94559
upperback -1.03519 -2.10159 -1.2224
thorax -6.79438 -0.725738 4.07695
lowerneck -18.9438 -4.97134 -12.2426
upperneck 16.6041 -4.79987 6.83173
head 8.78158 -2.33779 3.69826
rclavicle 6.91771e-014 4.77083e-015
rhumerus -58.809 4.88016 -94.2882
rradius 108.325
rwrist -13.3264
rhand -12.6102 25.4389
rfingers 7.12502
rthumb 13.4689 -4.10556
lclavicle 6.91771e-014 4.77083e-015
lhumerus -45.5384 -3.08315 89.3079
lradius 110.786
lwrist 26.5292
lhand -13.8645 7.45221
lfingers 7.12502
lthumb 12.2597 37.0729
rfemur -35.7004 -3.28165 22.2873
rtibia 23.9184
rfoot 3.83234 -4.0337
rtoes 3.24551
lfemur 8.99435 -7.69902 -30.4083
ltibia 42.3938
lfoot 26.5153 -13.212
ltoes -1.92583
73
root 1.29531 17.4211 2.64431 -7.71473 -42.8704 21.9551
lowerback 10.7247 -0.485505 -8.69194
upperback -0.786607 -1.86485 -1.07548
thorax -6.64421 -0.630106 4.05611
lowerneck -18.8572 -4.91215 -12.3946
upperneck 16.6321 -4.67939 6.79022
head 8.76681 -2.2977 3.72629
rclavicle 6.95746e-014 -2.70347e-014
rhumerus -58.1338 4.72401 -93.9361
rradius 108.326
rwrist -13.1245
rhand -12.7347 25.5469
rfingers 7.12502
rthumb 13.349 -4.00548
lclavicle 6.95746e-014 -2.70347e-014
lhumerus -45.9289 -3.14939 89.5316
lradius 110.111
lwrist 26.3549
lhand -15.282 6.80492
lfingers 7.12502
lthumb 10.8928 36.5024
rfemur -34.8871 -4.23294 23.2348
rtibia 25.1982
rfoot 4.16725 -3.1453
rtoes 14.7008
lfemur 8.21781 -6.73637 -29.9215
ltibia 45.6371
lfoot 26.7422 -13.5966
ltoes -0.929087
74
root 1.05645 17.3297 3.00801 -8.23657 -43.6516 21.7213
lowerback 11.0606 -0.219756 -8.37504
upperback -0.663107 -1.48333 -0.884532
thorax -6.75363 -0.449363 4.02868
lowerneck -18.4915 -4.95771 -12.7402
upperneck 16.62 -4.6849 6.73814
head 8.70784 -2.33487 3.76621
rclavicle 9.26337e-014 -2.54444e-014
rhumerus -57.5442 4.54858 -93.5942
rradius 108.18
rwrist -13.0415
rhand -13.1105 25.6286
rfingers 7.12502
rthumb 12.9867 -3.94717
lclavicle 9.26337e-014 -2.54444e-014
lhumerus -46.4241 -3.50958 89.9956
lradius 109.439
lwrist 27.1414
lhand -18.1244 6.38075
lfingers 7.12502
lthumb 8.1503 36.2036
rfemur -34.1555 -5.28418 24.3487
rtibia 27.1065
rfoot 4.48279 -1.13127
rtoes 26.9926
lfemur 7.45935 -5.56604 -29.3315
ltibia 48.8839
lfoot 26.2517 -13.2754
ltoes -3.34247
75
root 0.82092 17.2334 3.37116 -8.77014 -44.3688 21.5812
lowerback 11.3827 -0.0617819 -8.02495
upperback -0.570935 -1.24463 -0.767743
thorax -6.87112 -0.340393 3.9234
lowerneck -18.3594 -4.93015 -12.7653
upperneck 16.7684 -4.61352 6.49187
head 8.7232 -2.33427 3.6968
rclavicle 3.97569e-015 1.59028e-014
rhumerus -56.9484 4.77205 -93.5099
rradius 108.012
rwrist -13.289
rhand -13.6406 25.5259
rfingers 7.12502
rthumb 12.4756 -4.08169
lclavicle 3.97569e-015 1.59028e-014
lhumerus -47.1455 -3.76583 90.4973
lradius 109.108
lwrist 29.2287
lhand -21.7061 5.75359
lfingers 7.12502
lthumb 4.69255 35.6816
rfemur -33.4242 -6.30688 25.2426
rtibia 29.469
rfoot 1.91466 -1.4432
rtoes 27.4746
lfemur 6.48952 -4.49995 -28.7083
ltibia 52.1444
lfoot 25.801 -11.8552
ltoes -3.81301
76
root 0.582909 17.1356 3.73103 -9.36636 -44.9546 21.6002
lowerback 11.6235 0.00587297 -7.74329
upperback -0.401247 -1.13376 -0.800393
thorax -6.84371 -0.303105 3.71486
lowerneck -18.6316 -4.77963 -12.3521
upperneck 17.0706 -4.4046 6.06538
head 8.83265 -2.25561 3.51061
rclavicle -1.55052e-014 -7.95139e-015
rhumerus -56.2372 5.10242 -93.5159
rradius 107.88
rwrist -13.3847
rhand -13.8046 25.3677
rfingers 7.12502
rthumb 12.3175 -4.24946
lclavicle -1.55052e-014 -7.95139e-015
lhumerus -47.8261 -3.79579 90.5526
lradius 108.826
lwrist 31.0051
lhand -23.4974 5.73919
lfingers 7.12502
lthumb 2.96271 35.6984
rfemur -32.5273 -6.77927 25.605
rtibia 31.9711
rfoot -1.04906 -3.0743
rtoes 27.8891
lfemur 5.35228 -3.51398 -28.1144
ltibia 55.4363
lfoot 25.2052 -10.1164
ltoes -2.2351
77
root 0.338576 17.0427 4.08347 -9.77715 -45.5081 21.4467
lowerback 11.9123 0.120205 -7.41334
upperback -0.25701 -0.953706 -0.76795
thorax -6.87707 -0.228905 3.53682
lowerneck -18.9195 -4.67942 -12.0956
upperneck 17.3852 -4.2512 5.7883
head 8.96407 -2.1982 3.3943
rclavicle -5.06901e-014 -1.11319e-014
rhumerus -55.2564 5.08366 -93.4544
rradius 107.514
rwrist -13.4275
rhand -13.684 25.2069
rfingers 7.12502
rthumb 12.4338 -4.40323
lclavicle -5.06901e-014 -1.11319e-014
lhumerus -48.0005 -2.16569 88.7241
lradius 107.668
lwrist 24.2299
lhand -12.1988 9.37327
lfingers 7.12502
lthumb 13.8654 38.8911
rfemur -31.6963 -6.41972 25.7826
rtibia 34.4542
rfoot -3.76574 -1.43169
rtoes 32.4919
lfemur 4.04697 -2.52199 -27.3389
ltibia 58.755
lfoot 23.8922 -9.09265
ltoes -3.00455
